# 3ds Max Wavefront OBJ Exporter v0.97b - (c)2007 guruware
# File Created: 27.11.2015 20:06:41

#
# object Object003
#

v  540.4844 50.6116 196.2171
v  540.4844 25.1056 196.2171
v  540.4736 50.6116 1.5837
v  540.4736 25.1056 1.5837
v  365.2361 50.6116 196.2150
v  365.2361 50.6116 1.5837
v  365.2361 25.1056 196.2150
v  365.2361 25.1056 1.5837
v  540.4717 50.6116 -194.4167
v  540.4717 25.1056 -194.4167
v  365.2361 50.6116 -194.4200
v  365.2361 25.1056 -194.4200
v  540.6691 50.6116 196.2299
v  540.6691 25.1056 196.2299
v  540.6691 50.6116 1.5986
v  540.6691 25.1056 1.5986
v  540.6691 50.6116 -194.4051
v  540.6691 25.1056 -194.4051
v  365.1277 25.1056 -194.4232
v  365.1277 50.6116 -194.4232
v  364.7679 25.1056 196.1874
v  364.7679 50.6116 196.1874
v  112.8942 25.1056 196.2150
v  112.8942 50.6116 196.2150
v  112.8942 25.1056 1.5837
v  112.8942 50.6116 1.5837
v  112.9464 25.0925 -194.4128
v  112.9411 50.6057 -194.4128
v  366.1417 25.1056 196.2819
v  366.1417 50.6116 196.2819
v  112.1891 25.1056 196.2819
v  112.1891 50.6116 196.2819
v  365.9899 50.6565 -194.4142
v  365.9899 25.1026 -194.4142
v  111.7152 50.6565 -194.4142
v  111.7152 25.1026 -194.4142
v  112.9652 25.1056 196.2450
v  112.9652 50.6116 196.2450
v  -69.4248 25.1056 196.2450
v  -69.4248 50.6116 196.2450
v  112.9652 25.1056 0.4137
v  112.9652 50.6116 0.4137
v  -69.4248 25.1056 -194.4070
v  -69.4248 25.1056 0.4137
v  -69.4254 50.6027 -194.4092
v  -69.4248 50.6116 0.4137
v  112.9464 25.1056 196.3888
v  112.9464 50.6116 196.3888
v  -69.4436 25.1056 196.3888
v  -69.4436 50.6116 196.3888
v  -69.6277 50.6116 -194.4070
v  -69.6277 25.1056 -194.4070
v  -69.6277 50.6116 0.4137
v  -69.6277 25.1056 0.4137
v  -69.6277 50.6116 196.2450
v  -69.6277 25.1056 196.2450
v  -69.4260 24.9272 -194.4113
# 57 vertices

vn 0.7071 0.7071 -0.0000
vn 0.7809 -0.6247 -0.0000
vn 0.7809 0.6247 -0.0000
vn -0.7071 0.7071 -0.0000
vn -0.0000 1.0000 -0.0000
vn -0.7071 -0.7071 -0.0000
vn -0.7809 -0.6247 -0.0000
vn 0.0000 -1.0000 -0.0000
vn 0.7071 -0.7071 -0.0000
vn 1.0000 0.0000 -0.0000
vn 0.0001 0.0000 -1.0000
vn -0.0002 -0.0000 1.0000
vn 0.0000 -0.7071 0.7071
vn -0.0000 0.7071 0.7071
vn 0.0000 0.0000 1.0000
vn -0.0000 0.8944 0.4472
vn 0.0000 0.0000 -1.0000
vn 0.8165 -0.4082 0.4082
vn 0.3333 0.6667 0.6667
vn -0.3333 -0.6667 0.6667
vn -0.8165 0.4082 0.4082
vn 0.6247 -0.7809 -0.0000
vn -0.8944 -0.4472 -0.0000
vn -0.5547 -0.8321 -0.0000
vn -0.6247 0.7809 -0.0000
vn -1.0000 -0.0000 -0.0000
# 26 vertex normals

vt 0.6380 0.0153 0.0000
vt 0.3256 0.0153 0.0000
vt 0.6380 0.2965 0.0000
vt 0.3256 0.2965 0.0000
vt 0.0110 0.0153 0.0000
vt 0.0110 0.2965 0.0000
vt 0.6380 0.0149 0.0000
vt 0.3256 0.0149 0.0000
vt 0.0111 0.0149 0.0000
vt 0.6865 0.2721 0.0000
vt 0.6488 0.2721 0.0000
vt 0.6865 0.0126 0.0000
vt 0.6488 0.0126 0.0000
vt 0.6865 0.2727 0.0000
vt 0.6488 0.2727 0.0000
vt 0.6380 0.7015 0.0000
vt 0.3256 0.7015 0.0000
vt 0.0110 0.7015 0.0000
vt 0.6865 0.2706 0.0000
vt 0.6488 0.2706 0.0000
vt 0.6865 0.6466 0.0000
vt 0.6488 0.6466 0.0000
vt 0.6487 0.2709 0.0000
vt 0.6865 0.2709 0.0000
vt 0.6487 0.6473 0.0000
vt 0.6865 0.6473 0.0000
vt 0.6380 0.7014 0.0000
vt 0.6380 0.9941 0.0000
vt 0.0111 0.7014 0.0000
vt 0.3237 0.7014 0.0000
vt 0.0111 0.9941 0.0000
vt 0.3237 0.9941 0.0000
vt 0.6865 0.6454 0.0000
vt 0.6488 0.6454 0.0000
vt 0.6865 0.9154 0.0000
vt 0.6488 0.9154 0.0000
vt 0.0111 0.9944 0.0000
vt 0.3237 0.9944 0.0000
vt 0.6380 0.9944 0.0000
vt 0.6866 0.6454 0.0000
vt 0.6868 0.9154 0.0000
# 41 texture coords

g Object003
s 1
f 1/1/1 2/1/2 3/2/3 
f 4/2/2 3/2/3 2/1/2 
f 5/3/4 1/1/1 6/4/4 
f 3/2/3 6/4/4 1/1/5 
f 7/3/6 5/3/4 8/4/7 
f 6/4/4 8/4/7 5/3/4 
f 2/1/2 7/3/6 4/2/2 
f 8/4/7 4/2/2 7/3/8 
f 3/2/3 4/2/2 9/5/3 
f 10/5/9 9/5/3 4/2/2 
f 6/4/4 3/2/3 11/6/4 
f 9/5/3 11/6/4 3/2/3 
f 8/4/7 6/4/4 12/6/7 
f 11/6/4 12/6/7 6/4/4 
f 4/2/2 8/4/7 10/5/9 
f 12/6/7 10/5/8 8/4/7 
f 13/7/10 14/7/10 15/8/10 
f 16/8/10 15/8/10 14/7/10 
f 15/8/10 16/8/10 17/9/10 
f 18/9/10 17/9/10 16/8/10 
f 19/10/11 20/11/11 10/12/11 
f 9/13/11 10/12/11 20/11/11 
f 2/12/12 1/13/12 21/14/12 
f 22/15/12 21/14/12 1/13/12 
f 7/3/13 5/3/14 23/16/15 
f 24/16/16 23/16/15 5/3/15 
f 8/4/8 7/3/13 25/17/8 
f 23/16/8 25/17/8 7/3/8 
f 5/3/14 6/4/5 24/16/16 
f 26/17/5 24/16/16 6/4/5 
f 12/6/8 8/4/8 27/18/8 
f 25/17/8 27/18/8 8/4/8 
f 6/4/5 11/6/5 26/17/5 
f 28/18/5 26/17/5 11/6/5 
f 29/19/15 30/20/15 31/21/15 
f 32/22/15 31/21/15 30/20/15 
f 33/23/17 34/24/17 35/25/17 
f 36/26/17 35/25/17 34/24/17 
f 37/27/18 38/27/19 39/28/20 
f 40/28/21 39/28/20 38/27/19 
f 27/29/22 28/29/1 41/30/22 
f 42/30/1 41/30/22 28/29/10 
f 43/31/23 27/29/22 44/32/24 
f 41/30/22 44/32/24 27/29/22 
f 45/31/25 43/31/23 46/32/25 
f 44/32/24 46/32/25 43/31/23 
f 28/29/1 45/31/25 42/30/1 
f 46/32/25 42/30/1 45/31/25 
f 41/30/22 42/30/1 37/27/18 
f 38/27/19 37/27/18 42/30/1 
f 44/32/24 41/30/22 39/28/20 
f 37/27/18 39/28/20 41/30/22 
f 46/32/25 44/32/24 40/28/21 
f 39/28/20 40/28/21 44/32/26 
f 42/30/1 46/32/25 38/27/19 
f 40/28/21 38/27/19 46/32/25 
f 47/33/15 48/34/15 49/35/15 
f 50/36/15 49/35/15 48/34/15 
f 51/37/26 52/37/26 53/38/26 
f 54/38/26 53/38/26 52/37/26 
f 53/38/26 54/38/26 55/39/26 
f 56/39/26 55/39/26 54/38/26 
f 28/34/17 27/40/17 45/36/17 
f 57/41/17 45/36/17 27/40/17 
# 0 polygons - 64 triangles

